<svg width="128" height="39" viewBox="0 0 128 39" fill="none" xmlns="http://www.w3.org/2000/svg">
<path d="M24.5824 17.4308L31.8742 11.2153L21.1332 13.0595L16.0601 3.41413L14.4949 14.1993L3.75397 16.0435L13.5276 20.8649L11.9624 31.65L18.6103 25.9834" stroke="#F472B6" stroke-width="2"/>
<path d="M18.54 30.68L18.88 28.84H21.56L21.34 30.02L21.88 30.68H26L26.8 30L27.22 27.68L26.68 27.02H21.54L19.62 24.7L20.26 21L22.62 19H28.92L30.86 21.32L30.54 23.18H27.86L28.06 21.98L27.52 21.32H23.56L22.78 21.98L22.42 24.04L22.96 24.7H28.1L30.02 27.02L29.3 31L26.96 33H20.46L18.54 30.68ZM32.1391 30.8L33.1191 25.26H31.3191L31.7191 23.04H33.5591L34.1191 19.8H36.7191L36.1591 23.04H39.1991L38.7991 25.28H35.7591L34.8991 30.1L35.4791 30.76H37.8391L37.4391 33H33.9791L32.1391 30.8ZM40.9003 23.04H43.3403L43.0403 24.7L44.9403 23.04H47.7803L47.3803 25.28H45.1603L42.7603 27.36L41.7803 33H39.1403L40.9003 23.04ZM47.0161 30.8L48.0361 24.96L50.2961 23.04H55.8961L57.7361 25.28L57.0961 28.9H49.9961L49.7761 30.18L50.2961 30.84H53.5361L54.2561 30.22L54.3361 29.7H56.9361L56.6761 31.2L54.5761 33H48.8161L47.0161 30.8ZM54.7761 27.06L54.9961 25.9L54.4361 25.2H51.3361L50.5361 25.9L50.3161 27.06H54.7761ZM58.5363 31L58.9163 28.76L60.9363 27.04H66.1163L66.3163 25.78L65.8163 25.16H62.8363L62.1163 25.78L62.0163 26.34H59.4163L59.6763 25.04L61.9963 23.04H67.1163L69.0163 25.36L67.6763 33H65.2963L65.5363 31.58L63.8163 33H60.1763L58.5363 31ZM63.9963 30.96L65.6763 29.58L65.7963 28.92H62.0363L61.3963 29.46L61.2163 30.46L61.6363 30.96H63.9963ZM71.7402 23.04H74.1802L73.8802 24.68L75.8002 23.04H78.2402L79.3602 24.42L80.9602 23.04H84.3402L86.2402 25.36L84.8802 33H82.2402L83.4802 25.98L82.9202 25.28H81.2602L80.0202 26.34L78.8402 33H76.2802L77.5202 25.94L77.0002 25.28H75.8802L73.6402 27.2L72.6202 33H69.9802L71.7402 23.04ZM87.1338 30.68L87.4738 28.84H90.1538L89.9338 30.02L90.4738 30.68H94.5938L95.3938 30L95.8138 27.68L95.2738 27.02H90.1338L88.2138 24.7L88.8538 21L91.2138 19H97.5138L99.4538 21.32L99.1338 23.18H96.4538L96.6538 21.98L96.1138 21.32H92.1538L91.3738 21.98L91.0138 24.04L91.5538 24.7H96.6937L98.6138 27.02L97.8937 31L95.5538 33H89.0538L87.1338 30.68ZM100.733 30.8L101.713 25.26H99.9128L100.313 23.04H102.153L102.713 19.8H105.313L104.753 23.04H107.793L107.393 25.28H104.353L103.493 30.1L104.073 30.76H106.433L106.033 33H102.573L100.733 30.8ZM107.794 31L108.174 28.76L110.194 27.04H115.374L115.574 25.78L115.074 25.16H112.094L111.374 25.78L111.274 26.34H108.674L108.934 25.04L111.254 23.04H116.374L118.274 25.36L116.934 33H114.554L114.794 31.58L113.074 33H109.434L107.794 31ZM113.254 30.96L114.934 29.58L115.054 28.92H111.294L110.654 29.46L110.474 30.46L110.894 30.96H113.254ZM120.998 23.04H123.438L123.138 24.7L125.038 23.04H127.878L127.478 25.28H125.258L122.858 27.36L121.878 33H119.238L120.998 23.04Z" fill="#F472B6"/>
</svg>
